<?xml version="1.0" standalone="no"?><svg xmlns="http://www.w3.org/2000/svg" viewBox="0 0 1440 320"><path fill="#001432" fill-opacity="1" d="M0,32L40,58.7C80,85,160,139,240,160C320,181,400,171,480,149.3C560,128,640,96,720,85.3C800,75,880,85,960,106.7C1040,128,1120,160,1200,165.3C1280,171,1360,149,1400,138.7L1440,128L1440,320L1400,320C1360,320,1280,320,1200,320C1120,320,1040,320,960,320C880,320,800,320,720,320C640,320,560,320,480,320C400,320,320,320,240,320C160,320,80,320,40,320L0,320Z"></path></svg>